<?xml version="1.0" encoding="UTF-8" standalone="no"?>
<svg
   xmlns:dc="http://purl.org/dc/elements/1.1/"
   xmlns:cc="http://creativecommons.org/ns#"
   xmlns:rdf="http://www.w3.org/1999/02/22-rdf-syntax-ns#"
   xmlns:svg="http://www.w3.org/2000/svg"
   xmlns="http://www.w3.org/2000/svg"
   viewBox="0 0 1728 2304"
   height="2304"
   width="1728"
   xml:space="preserve"
   id="svg2"
   version="1.1"><metadata
     id="metadata8"><rdf:RDF><cc:Work
         rdf:about=""><dc:format>image/svg+xml</dc:format><dc:type
           rdf:resource="http://purl.org/dc/dcmitype/StillImage" /></cc:Work></rdf:RDF></metadata><defs
     id="defs6"><clipPath
       id="clipPath18"
       clipPathUnits="userSpaceOnUse"><path
         id="path16"
         d="M 0,1728 H 1296 V 0 H 0 Z" /></clipPath></defs><g
     transform="matrix(1.3333333,0,0,-1.3333333,0,2304)"
     id="g10"><g
       id="g12"><g
         clip-path="url(#clipPath18)"
         id="g14"><g
           transform="translate(553.8069,475.7457)"
           id="g20"><path
             id="path22"
             style="fill:#144399;fill-opacity:1;fill-rule:evenodd;stroke:none"
             d="M 0,0 C -3.477,-1.973 -6.555,-7.173 -6.216,-10.37 -2.142,-8.189 -0.12,-4.991 0,0 m 12.682,42.199 c 2.341,1.773 4.034,2.889 5.568,4.224 4.961,4.283 9.086,9.244 11.706,15.331 1.633,3.765 1.135,7.342 -1.525,10.53 -1.364,1.653 -2.361,1.743 -3.875,0.249 -1.026,-0.977 -1.962,-2.073 -2.809,-3.218 -5.13,-7.063 -7.252,-15.391 -9.663,-23.58 -0.219,-0.727 0.259,-1.654 0.598,-3.536 M 40.196,21.916 c -3.437,-1.554 -5.18,-5.19 -8.328,-7.272 -2.162,1.674 -4.284,3.168 -6.246,4.851 -2.032,1.764 -2.132,2.879 0.07,4.374 3.128,2.072 6.525,3.735 9.842,5.549 0.558,0.308 1.216,0.478 1.833,0.647 5.758,1.494 7.412,5.868 7.96,11.127 0.856,8.179 2.928,16.109 6.365,23.59 1.873,4.055 5.101,6.535 9.873,6.326 2.739,-0.139 3.187,-0.548 3.247,-3.208 0.03,-0.777 0.1,-1.564 -0.02,-2.341 -0.508,-3.357 0.628,-5.917 2.919,-8.477 2.391,-2.68 4.234,-5.898 6.027,-9.066 C 75.84,44.35 75.701,42.159 72.563,39.28 69.524,36.48 66.237,33.602 62.531,31.958 57.729,29.846 56.534,25.841 55.856,21.737 54.96,16.238 54.97,10.599 54.641,5.031 54.581,4.164 54.81,3.277 54.9,2.55 c 0.458,-0.229 0.687,-0.448 0.907,-0.428 6.047,0.628 9.563,-3.178 13.01,-7.262 2.769,-3.278 5.529,-6.545 8.388,-9.733 2.63,-2.949 4.772,-6.147 6.017,-9.952 1.225,-3.746 -0.209,-6.684 -2.6,-9.255 -1.744,-1.902 -2.889,-1.823 -5.171,-0.438 -3.088,1.933 -6.266,3.726 -9.254,5.788 -1.445,1.006 -2.6,2.45 -3.776,3.795 -1.863,2.162 -3.486,4.523 -5.469,6.545 -0.677,0.688 -2.311,1.136 -3.108,0.797 -0.757,-0.338 -1.424,-1.853 -1.404,-2.869 0.039,-4.493 -0.439,-8.995 1.354,-13.458 1.385,-3.427 2.321,-7.183 1.903,-11.068 -0.558,-5.24 -2.789,-6.445 -7.73,-4.652 -3.039,1.096 -5.25,3.267 -6.057,6.664 -0.488,2.003 -1.096,4.065 -2.122,5.828 -2.371,4.134 -4.413,8.298 -3.835,13.06 -1.804,1.415 -3.517,1.176 -5.041,0.419 -3.009,-1.525 -5.977,-3.149 -8.806,-4.961 -2.262,-1.445 -4.473,-1.923 -7.203,-1.007 -0.877,6.754 -1.195,13.598 -3.925,19.904 -4.323,-1.165 -5.21,-2.162 -5.14,-6.116 0.189,-9.504 0.468,-18.988 0.677,-28.472 0.02,-1.016 -0.09,-2.032 -0.149,-3.118 -2.65,-0.548 -4.264,0.817 -5.579,2.401 -2.211,2.63 -3.776,5.609 -3.756,9.185 0.05,4.712 0.14,9.404 0.15,14.106 0.02,0.817 -0.219,1.644 -0.399,2.949 -3.337,-1.853 -6.395,-3.238 -8.547,-5.937 -2.072,-2.591 -4.812,-3.836 -8.019,-4.394 -2.521,-0.408 -4.324,0.598 -5.659,2.591 -2.699,3.974 -3.198,8.467 -2.899,13.089 0.05,0.598 0.399,1.385 0.857,1.674 6.246,3.945 9.324,10.42 13.249,16.208 4.483,6.565 8.916,13.15 13.25,19.794 1.265,1.963 3.327,3.806 2.231,7.173 -1.633,-0.837 -3.058,-1.554 -4.473,-2.281 -1.514,-0.787 -3.068,-1.485 -4.493,-2.371 -1.633,-1.056 -3.217,-2.232 -4.691,-3.497 -2.84,-2.381 -5.858,-2.879 -8.887,-0.797 -2.022,1.375 -3.994,3.038 -5.399,4.991 -2.211,3.118 -0.737,5.36 3.019,5.688 3.187,0.279 6.365,0.976 9.463,1.793 4.902,1.295 9.703,2.959 14.614,4.244 2.461,0.628 3.676,1.943 4.294,4.363 2.301,8.857 5.36,17.434 9.683,25.493 2.73,5.061 5.898,9.842 10.45,13.528 2.451,1.983 2.899,2.052 5.26,-0.06 4.821,-4.313 7.282,-9.872 7.671,-16.198 C 38.563,52.39 30.185,42.856 17.752,38.314 16.178,37.726 14.534,37.208 13.11,36.321 9.454,34.02 8.189,30.354 8.059,26.27 7.87,20.79 7.969,15.302 7.79,9.832 7.701,6.993 7.203,4.184 7.003,1.345 c -0.129,-1.773 -0.01,-3.577 -0.01,-5.37 2.849,-0.358 4.802,0.817 6.366,2.311 1.723,1.644 3.377,2.591 5.857,2.401 1.106,-0.069 2.561,0.608 3.388,1.425 5.708,5.698 11.336,11.516 16.975,17.314 0.488,0.528 0.817,1.245 1.205,1.883 -0.189,0.199 -0.388,0.398 -0.588,0.607" /></g><g
           transform="translate(881.3633,598.8888)"
           id="g24"><path
             id="path26"
             style="fill:#144399;fill-opacity:1;fill-rule:evenodd;stroke:none"
             d="m 0,0 c 0.289,0.837 0.518,1.295 0.608,1.773 0.737,4.593 1.534,9.185 2.122,13.787 0.328,2.531 -0.917,3.786 -3.557,3.995 -2.441,0.179 -4.931,0.1 -7.302,0.598 -3.467,0.687 -5.29,-0.408 -5.23,-3.995 0.04,-2.281 0.847,-4.542 0.976,-6.844 0.24,-3.606 2.431,-5.648 5.4,-6.983 C -4.881,1.395 -2.61,0.847 0,0 m 33.831,38.742 c -0.907,0.06 -1.823,0.229 -2.71,0.179 -3.218,-0.219 -5.19,-2.51 -4.832,-5.758 C 26.778,28.89 25.771,25.154 22.793,21.996 16.885,15.75 14.773,7.89 13.239,-0.229 12.532,-3.955 11.705,-7.651 13.12,-11.376 c 0.438,-1.136 0.976,-2.242 1.713,-3.896 0.867,1.116 1.435,1.604 1.724,2.222 3.407,7.322 6.764,14.674 10.221,21.956 1.145,2.371 2.839,4.284 5.18,5.718 5.23,3.178 11.884,0.458 13.707,-5.529 0.997,-3.327 2.242,-6.654 3.836,-9.743 2.53,-4.901 3.058,-10.151 3.576,-15.46 0.12,-1.554 -0.07,-3.138 -0.1,-4.702 -0.059,-3.816 2.381,-6.406 6.217,-6.047 3.566,0.328 6.853,1.494 8.617,5.13 1.305,2.71 2.879,5.27 4.174,7.96 3.357,6.943 9.075,10.958 16.248,13.01 1.763,0.498 3.735,0.229 6.306,0.339 -0.678,-1.415 -0.857,-2.342 -1.425,-2.859 -2.481,-2.341 -3.806,-4.862 -2.192,-8.319 0.857,-1.883 -0.428,-3.207 -1.673,-4.423 -3.935,-3.815 -7.88,-7.611 -11.815,-11.436 -0.717,-0.717 -1.375,-1.504 -2.341,-2.55 2.54,-2.989 4.961,-5.858 7.402,-8.687 1.026,-1.196 2.101,-2.321 3.167,-3.467 6.336,-6.854 6.177,-13.937 -0.019,-21.308 -3.109,-3.686 -6.157,-7.422 -9.275,-11.078 -1.594,-1.883 -3.277,-3.696 -4.971,-5.489 -1.086,-1.175 -2.291,-1.365 -3.855,-0.677 -2.849,1.225 -5.788,1.046 -8.757,0.129 -2.201,-0.687 -4.532,-1.345 -6.814,-1.405 -3.277,-0.089 -4.194,1.714 -2.49,4.434 0.906,1.424 1.923,2.809 3.108,3.994 4.373,4.324 8.826,8.528 13.239,12.771 2.859,2.73 5.4,5.609 6.575,9.534 1.106,3.756 0.289,6.983 -3.178,10.061 -2.211,-2.689 -4.413,-5.399 -6.674,-8.049 -3.457,-4.064 -6.804,-8.248 -10.5,-12.074 -3.267,-3.387 -5.3,-7.371 -6.874,-11.675 -0.448,-1.225 -0.767,-2.49 -1.335,-3.666 -0.896,-1.883 -2.301,-3.098 -4.602,-2.929 -1.963,0.12 -3.925,-0.01 -5.868,0.12 -2.47,0.209 -3.197,1.076 -3.108,3.546 0.11,2.929 1.873,5.161 3.567,7.243 6.565,8.089 13.299,16.038 19.963,24.068 1.415,1.713 2.76,3.486 4.005,5.319 0.946,1.355 1.714,2.899 0.548,5.011 -1.554,-0.837 -2.959,-1.713 -4.453,-2.401 -3.377,-1.544 -5.489,-0.548 -6.455,3.009 -0.289,0.996 -0.608,2.032 -0.598,3.068 0.06,4.672 -0.867,9.215 -1.943,13.767 -1.036,4.384 -1.195,8.986 -2.132,13.399 -0.607,2.879 -1.464,5.858 -2.978,8.338 -2.54,4.154 -7.352,3.885 -9.693,-0.348 -1.126,-2.013 -2.022,-4.254 -2.52,-6.506 -1.007,-4.393 -1.634,-8.886 -2.471,-13.329 -0.259,-1.384 -0.767,-2.739 -1.096,-4.114 -1.046,-4.284 -2.162,-8.537 -3.038,-12.841 -0.518,-2.55 0.299,-4.881 2.092,-6.804 0.717,-0.757 1.614,-1.374 2.241,-2.181 1.226,-1.584 2.162,-3.288 1.196,-5.4 -0.957,-2.072 -2.58,-3.407 -4.812,-3.506 -4.951,-0.219 -9.922,0.099 -14.724,1.424 -4.373,1.216 -5.987,3.865 -6.086,8.328 -0.03,2.292 -0.907,4.553 -0.977,6.874 -0.239,7.89 -2.46,15.65 -1.753,23.64 0.209,2.271 -1.335,3.267 -3.586,2.55 -1.225,-0.399 -2.381,-1.056 -3.537,-1.654 -0.807,-0.408 -1.514,-1.056 -2.351,-1.404 -6.555,-2.839 -5.449,-3.497 -11.426,0.906 -2.202,1.594 -4.523,3.029 -6.924,4.324 -2.46,1.315 -3.925,3.038 -4.572,5.897 -0.677,2.989 -2.032,5.888 -3.317,8.707 -1.246,2.779 -0.977,4.283 1.514,5.937 2.53,1.704 5.818,1.484 8.368,-0.488 1.335,-1.016 2.63,-2.311 4.154,-2.849 1.325,-0.478 3.347,-0.598 4.363,0.119 1.544,1.076 2.411,2.969 1.863,5.171 -1.813,7.162 -1.554,8.009 4.872,11.406 4.891,2.58 7.71,6.864 10.32,11.406 0.847,1.455 1.484,3.039 2.232,4.573 2.122,4.303 5.309,7.352 10.071,8.547 0.897,0.209 1.913,0.249 2.63,0.727 6.734,4.533 14.186,1.903 21.348,2.232 1.415,0.05 3.009,-0.837 4.314,-1.644 2.5,-1.504 2.829,-3.237 1.315,-5.867 -1.873,-3.238 -3.826,-6.426 -5.967,-9.992" /></g><g
           transform="translate(764.8937,508.1806)"
           id="g28"><path
             id="path30"
             style="fill:#144399;fill-opacity:1;fill-rule:evenodd;stroke:none"
             d="m 0,0 c 2.082,1.235 3.586,1.982 4.931,2.949 2.75,2.002 5.39,4.114 8.099,6.156 3.208,2.431 3.298,3.208 0.757,6.207 -0.707,0.806 -1.235,1.763 -1.952,2.799 2.391,1.673 4.682,1.693 6.754,1.295 2.929,-0.528 5.678,-0.15 8.527,0.329 4.174,0.727 8.378,0.936 11.845,-2.202 0.857,-0.787 1.455,-1.903 2.291,-2.999 C 35.913,11.825 31.011,9.444 26.23,6.874 20.382,3.746 14.614,0.448 8.826,-2.829 7.701,-3.457 6.645,-4.244 5.599,-5.011 c -4.115,-2.978 -6.346,-6.644 -5.31,-12.054 0.877,-4.582 0.508,-9.374 2.441,-13.787 1.026,-2.321 2.161,-4.274 5.08,-4.792 9.075,-1.594 18.121,-3.466 27.186,-5.08 1.744,-0.299 3.786,-0.439 5.36,0.209 8.318,3.357 15.57,0.667 22.514,-3.726 1.723,-1.096 3.307,-2.58 4.572,-4.184 2.391,-3.008 1.763,-5.05 -1.713,-6.684 -0.817,-0.379 -1.654,-0.777 -2.491,-1.136 -2.63,-1.076 -4.154,-3.028 -4.762,-5.778 -0.159,-0.757 -0.239,-1.564 -0.547,-2.251 -1.166,-2.68 -2.85,-3.567 -5.649,-2.55 -1.753,0.637 -3.228,0.567 -4.851,-0.21 -5.619,-2.61 -11.028,-1.912 -15.74,1.853 -6.206,4.971 -12.084,10.351 -18.151,15.501 -2.331,1.992 -4.333,4.433 -7.232,5.748 -1.365,-1.096 -0.777,-2.241 -0.299,-3.248 1.385,-3.078 1.554,-6.226 1.056,-9.543 -0.229,-1.534 0.1,-3.138 -0.06,-4.682 -0.279,-2.829 -0.368,-5.728 -1.205,-8.418 -1.783,-5.778 -8.796,-8.597 -14.385,-5.818 -2.281,1.156 -4.413,1.724 -7.003,1.435 -1.554,-0.179 -3.358,0.388 -4.782,1.136 -4.234,2.241 -8.169,5.14 -13.289,5.09 -0.548,-0.01 -1.086,0.618 -1.654,0.906 -1.365,0.678 -2.67,1.555 -4.114,1.933 -3.078,0.797 -4.593,2.65 -3.587,5.639 0.668,2.002 2.132,3.785 3.467,5.489 0.698,0.866 1.853,1.514 2.929,1.912 7.362,2.69 9.653,9.036 11.277,15.73 0.627,2.481 0.458,5.13 0.677,7.701 0.229,2.928 -2.052,3.526 -4.154,2.141 -1.315,-0.846 -2.59,-1.763 -3.855,-2.669 -0.847,-0.588 -1.644,-1.305 -2.54,-1.833 -2.182,-1.325 -2.77,-1.236 -4.005,0.946 -1.385,2.491 -2.779,5.021 -3.905,7.651 -1.086,2.58 -0.558,3.756 2.002,4.941 3.178,1.484 6.396,2.909 9.643,4.244 5.878,2.41 8.05,5.897 7.442,12.054 -1.046,10.4 -2.59,20.77 -2.909,31.18 -0.299,9.514 -1.933,18.898 -2.002,28.422 -0.01,1.624 0.568,3.287 1.125,4.851 0.548,1.435 1.465,2.76 2.162,4.164 2.222,4.453 8.557,5.091 11.506,0.957 1.146,-1.614 2.072,-3.776 2.082,-5.699 0.05,-4.981 1.255,-9.653 2.401,-14.435 0.996,-4.144 0.747,-8.567 1.494,-12.791 0.997,-5.598 2.411,-11.127 3.676,-16.656 0.757,-3.287 1.544,-6.555 2.311,-9.832 C -1.524,6.226 -0.837,3.497 0,0" /></g><g
           transform="translate(452.0082,635.0296)"
           id="g32"><path
             id="path34"
             style="fill:#144399;fill-opacity:1;fill-rule:evenodd;stroke:none"
             d="m 0,0 c 1.923,-1.435 3.078,-2.221 4.144,-3.108 1.325,-1.076 2.59,-2.202 3.836,-3.347 2.39,-2.162 4.702,-3.527 7.949,-1.246 1.405,0.987 3.298,0.489 4.762,-0.647 2.281,-1.753 4.562,-3.298 7.561,-3.816 2.261,-0.398 2.829,-2.54 1.504,-4.562 -1.962,-2.909 -4.114,-5.708 -5.977,-8.677 -2.122,-3.387 -1.584,-4.383 2.301,-5.3 4.872,-1.125 9.374,-3.177 13.529,-5.947 0.797,-0.538 1.394,-1.415 2.121,-2.162 -2.141,-3.566 -4.721,-5.508 -8.726,-6.206 -4.961,-0.847 -10.181,-0.478 -14.843,-2.909 -0.688,-0.348 -1.764,-0.07 -2.65,0.04 -2.162,0.319 -4.324,0.867 -6.485,0.966 -3.408,0.15 -3.408,0.01 -5.729,-3.476 2.929,-5.509 6.336,-10.839 11.068,-15.262 1.066,-0.956 2.132,-1.923 3.038,-3.028 1.066,-1.276 0.778,-2.61 -0.767,-3.128 -3.795,-1.276 -7.63,-2.421 -11.496,-3.417 -0.916,-0.249 -2.032,0.358 -3.058,0.478 -2.69,0.289 -5.389,0.857 -8.069,0.717 -5.529,-0.259 -10.869,0.12 -16.079,2.222 -4.981,2.002 -10.151,2.002 -15.331,0.577 -1.106,-0.308 -2.291,-0.508 -3.447,-0.548 -3.447,-0.139 -4.273,0.778 -4.024,4.284 0.159,2.341 -0.817,3.845 -3.288,4.593 -3.208,0.946 -6.495,1.733 -9.743,2.679 -1.235,0.349 -2.46,0.857 -3.626,1.425 -2.321,1.116 -3.466,3.008 -3.516,5.618 -0.08,3.925 -0.279,7.81 -0.329,11.726 -0.04,3.905 4.553,6.833 8.019,5.12 5.34,-2.67 10.67,-5.38 15.949,-8.189 1.684,-0.906 2.919,-0.737 4.125,0.678 2.619,2.998 4.592,6.365 5.24,10.33 0.418,2.57 -1.126,4.423 -2.71,6.196 -3.068,3.417 -5.718,7.143 -7.302,11.467 -0.986,2.719 -2.172,5.469 -0.986,8.597 1.295,3.417 4.572,5.409 7.959,4.234 3.706,-1.285 7.312,-2.73 9.763,-6.137 0.976,-1.335 2.391,-2.391 3.775,-3.357 4.025,-2.829 6.944,-2.68 10.54,0.588 2.899,2.63 5.668,5.429 8.368,8.238 C -1.644,-2.68 -0.966,-1.375 0,0" /></g><g
           transform="translate(349.0917,925.3743)"
           id="g36"><path
             id="path38"
             style="fill:#144399;fill-opacity:1;fill-rule:evenodd;stroke:none"
             d="m 0,0 c -0.767,-3.407 -1.415,-6.555 -2.212,-9.673 -0.378,-1.484 -1.484,-1.365 -2.809,-1.026 -4.363,1.155 -93.591,22.852 -102.258,25.054 -2.231,0.558 -2.63,1.136 -2.112,3.287 0.598,2.521 1.415,4.991 2.062,7.502 0.379,1.554 1.305,2.052 2.81,2.152 5.937,0.398 71.993,7.033 71.993,7.033 0,0 -64.123,16.447 -68.278,17.393 0.568,3.865 1.276,7.213 2.64,10.38 0.18,0.439 1.365,0.817 1.953,0.668 C -88.67,60.947 2.132,38.612 8.916,36.869 8.567,35.106 7.272,29.168 7.053,27.893 6.575,25.453 6.037,24.865 3.477,24.626 -0.907,24.197 -66.714,17.224 -66.714,17.224 -66.714,17.224 -4.622,1.195 0,0" /></g><g
           transform="translate(419.885,1069.8219)"
           id="g40"><path
             id="path42"
             style="fill:#144399;fill-opacity:1;fill-rule:evenodd;stroke:none"
             d="m 0,0 c -2.331,-2.59 -4.453,-5.011 -6.674,-7.322 -1.066,-1.116 -1.983,-0.488 -2.959,0.478 -3.238,3.168 -70.252,65.948 -76.707,72.115 -1.663,1.593 -1.743,2.281 -0.219,3.905 1.753,1.912 3.696,3.656 5.479,5.528 1.096,1.156 2.162,1.136 3.517,0.479 5.369,-2.581 66.147,-29.308 66.147,-29.308 0,0 -47.748,45.874 -50.906,48.753 2.411,3.088 4.662,5.649 7.402,7.731 0.379,0.308 1.584,0.04 2.022,-0.379 C -47.219,96.69 20.86,32.576 25.901,27.724 24.725,26.359 20.691,21.807 19.854,20.82 18.25,18.918 17.493,18.689 15.132,19.725 11.108,21.518 -49.61,47.817 -49.61,47.817 -49.61,47.817 -3.437,3.307 0,0" /></g><g
           transform="translate(970.0373,858.9194)"
           id="g44"><path
             id="path46"
             style="fill:#144399;fill-opacity:1;fill-rule:evenodd;stroke:none"
             d="m 0,0 c 0.149,3.467 0.219,6.694 0.448,9.892 0.11,1.534 1.216,1.624 2.59,1.524 4.513,-0.368 96.173,-5.817 105.089,-6.435 2.281,-0.169 2.779,-0.647 2.669,-2.869 -0.149,-2.59 -0.518,-5.17 -0.687,-7.74 -0.12,-1.584 -0.936,-2.252 -2.401,-2.62 -5.788,-1.455 -69.594,-19.755 -69.594,-19.755 0,0 66.038,-4.742 70.301,-4.951 0.11,-3.895 0.02,-7.322 -0.747,-10.689 -0.119,-0.468 -1.205,-1.036 -1.813,-0.986 -7.74,0.438 -101.083,6.236 -108.067,6.744 0.04,1.793 0.249,7.87 0.249,9.175 0.03,2.48 0.459,3.158 2.939,3.855 4.224,1.186 67.731,19.784 67.731,19.784 0,0 -63.935,4.712 -68.707,5.071" /></g><g
           transform="translate(1059.802,994.8646)"
           id="g48"><path
             id="path50"
             style="fill:#144399;fill-opacity:1;fill-rule:evenodd;stroke:none"
             d="m 0,0 c 0,0 2.222,-6.545 3.078,-9.364 0.598,-1.983 -0.229,-3.158 -2.789,-3.826 -4.732,-1.295 -38.692,-9.912 -38.692,-9.912 l 6.286,-23.829 c 0,0 34.289,8.876 38.423,9.952 2.49,0.648 3.407,0.319 4.224,-2.062 0.827,-2.46 1.325,-5.021 1.892,-7.571 0.299,-1.385 -0.458,-2.201 -1.803,-2.55 -6.146,-1.564 -98.065,-25.602 -102.647,-26.937 -1.484,-0.428 -2.222,0.169 -2.55,1.574 -0.618,2.51 -1.285,5.011 -1.913,7.541 -0.548,2.321 -0.249,2.939 2.122,3.596 6.754,1.863 43.753,11.626 43.753,11.626 l -6.326,23.649 c 0,0 -38.822,-9.991 -42.438,-10.988 -3.228,-0.886 -4.224,-0.308 -5.081,2.909 -0.667,2.501 -1.275,5.011 -2.022,7.95 C -104.62,-27.575 0,0 0,0" /></g><g
           transform="translate(524.6026,1246.5093)"
           id="g52"><path
             id="path54"
             style="fill:#144399;fill-opacity:1;fill-rule:evenodd;stroke:none"
             d="m 0,0 c 2.391,-7.432 4.732,-14.684 7.202,-22.325 9.962,2.57 19.356,6.217 29.278,9.026 1.913,-5.927 3.756,-11.556 5.719,-17.613 C 40.814,-31.539 13.09,-41.063 13.09,-41.063 l 8.776,-27.505 c 0,0 22.106,6.924 29.617,9.444 1.594,0.518 3.078,0.279 3.596,-1.335 1.694,-5.17 3.188,-10.39 4.742,-15.61 0.03,-0.09 -0.099,-0.209 -0.358,-0.717 -4.613,-1.485 -31.799,-10.191 -40.456,-12.951 -2.998,-0.956 -3.596,-0.637 -4.562,2.361 -6.037,19.097 -12.064,38.194 -18.131,57.281 -4.194,13.259 -13.08,40.993 -13.219,41.631 -0.738,2.7 -0.389,3.427 2.331,4.333 3.576,1.196 28.132,8.866 36.819,11.616 3.228,1.016 3.696,0.827 4.772,-2.441 1.315,-3.955 2.61,-7.919 3.835,-11.894 C 31.589,10.779 31.24,10.341 28.84,9.583 19.784,6.734 0.638,0.369 0,0" /></g><g
           transform="translate(998.6288,760.1959)"
           id="g56"><path
             id="path58"
             style="fill:#144399;fill-opacity:1;fill-rule:evenodd;stroke:none"
             d="M 0,0 37.985,-2.351 4.642,15.471 Z m -48.803,-9.822 c 1.245,3.944 2.281,7.531 3.596,11.007 0.249,0.668 1.574,1.375 2.381,1.315 3.487,-0.139 23.311,-0.876 23.311,-0.876 0,0 2.391,8.308 3.576,12.532 0.727,2.47 1.205,5.071 2.212,7.421 0.886,2.073 0.358,3.188 -1.445,4.125 -3.118,1.574 -14.983,7.571 -17.752,9.035 -2.909,1.584 -2.929,1.833 -1.963,4.891 0.578,1.843 2.601,8.099 3.258,9.514 5.708,-2.979 93.214,-49.132 96.77,-51.065 2.72,-1.464 2.71,-1.613 1.813,-4.512 -0.787,-2.6 -1.982,-7.113 -1.982,-7.113 0,0 -0.688,-3.188 -3.746,-3.188 -2.819,0.478 -105.268,6.266 -110.029,6.914" /></g><g
           transform="translate(437.4548,1227.0039)"
           id="g60"><path
             id="path62"
             style="fill:#144399;fill-opacity:1;fill-rule:evenodd;stroke:none"
             d="m 0,0 c 4.433,-5.24 46.741,-56.882 51.483,-61.326 0.219,0.13 0.428,0.289 0.628,0.429 -1.176,3.656 -10.699,32.147 -14.226,42.756 -3.257,9.733 -6.445,19.516 -9.703,29.249 -1.175,3.496 -1.036,4.094 2.172,5.987 1.813,1.046 3.676,1.972 5.509,2.988 2.441,1.335 2.929,1.116 3.775,-1.574 2.74,-8.687 5.489,-17.373 8.209,-26.07 3.875,-12.383 19.784,-62.451 23.869,-75.083 1.016,-3.088 0.946,-3.297 -1.913,-4.971 -2.231,-1.325 -4.553,-2.53 -6.764,-3.905 -1.514,-0.927 -2.63,-0.638 -3.716,0.677 -6.415,7.741 -67.731,80.263 -69.564,82.455 -1.275,1.544 -1.126,2.381 0.678,3.377 C -6.585,-3.407 -3.586,-1.883 0,0" /></g><g
           transform="translate(867.5292,1231.9171)"
           id="g64"><path
             id="path66"
             style="fill:#144399;fill-opacity:1;fill-rule:evenodd;stroke:none"
             d="m 0,0 c 0.717,-0.09 1.175,0 1.455,-0.199 3.147,-2.082 6.246,-4.234 9.394,-6.326 1.424,-0.946 1.653,-2.032 1.175,-3.686 -3.636,-12.602 -10.719,-39.13 -10.719,-40.176 0.877,0.418 22.404,16.945 32.526,24.944 1.175,0.937 2.201,1.953 3.775,0.917 3.148,-2.082 6.296,-4.164 9.414,-6.276 0.269,-0.199 0.339,-0.678 0.727,-1.514 -1.195,-0.837 -35.663,-26.34 -51.513,-38.424 -2.5,-1.922 -4.353,-4.791 -6.156,-7.441 -6.904,-10.131 -21.448,-31.699 -22.225,-32.615 -2.969,2.052 -5.887,3.964 -8.717,6.007 -1.335,0.956 -1.036,2.092 -0.169,3.377 7.322,10.769 14.534,21.637 21.926,32.366 1.833,2.64 3.029,5.449 3.776,8.498 C -12.96,-50.865 -2.809,-10.699 0,0" /></g><g
           transform="translate(432.2019,541.7533)"
           id="g68"><path
             id="path70"
             style="fill:#144399;fill-opacity:1;fill-rule:evenodd;stroke:none"
             d="m 0,0 c -3.517,-5.419 -8.368,-8.438 -14.604,-9.573 -3.746,-0.668 -7.412,-1.714 -11.118,-2.581 -0.069,-0.328 -0.139,-0.657 -0.199,-0.996 0.986,-0.687 1.913,-1.504 2.969,-2.032 3.476,-1.773 7.033,-3.407 10.52,-5.17 1.394,-0.708 2.719,-1.554 3.984,-2.461 2.381,-1.753 2.222,-2.719 -0.458,-4.094 -1.614,-0.837 -3.238,-1.704 -4.752,-2.7 -1.903,-1.245 -3.208,-2.709 -3.178,-5.389 0.03,-3.457 -2.141,-4.583 -5.25,-3.059 -4.323,2.132 -8.806,4.025 -12.88,6.565 -4.274,2.68 -8.179,5.977 -12.234,9.016 -1.055,0.757 -2.151,1.484 -3.197,2.281 -3.925,3.029 -4.134,8.448 -0.439,11.825 0.568,0.518 1.196,1.116 1.873,1.365 6.585,2.301 13.05,5.638 20.313,2.64 2.131,-0.887 4.064,0.139 6.056,0.707 4.673,1.345 5.928,1.942 8.777,4.632 -2.849,2.441 -6.206,3.597 -9.554,4.882 -5.03,1.942 -10.26,1.354 -15.441,1.424 -2.351,0.03 -4.692,-0.05 -7.043,0.02 -3.686,0.12 -6.196,-1.654 -7.84,-4.752 -0.727,-1.375 -1.265,-2.889 -1.703,-4.373 -1.475,-5.041 -4.413,-9.095 -8.328,-12.492 -1.724,-1.514 -3.746,-2.63 -6.067,-1.684 -2.76,1.146 -4.742,3.258 -5.519,6.206 -0.199,0.787 0.129,1.784 0.448,2.61 1.803,4.732 2.401,9.494 0.897,14.485 -0.847,2.839 2.391,6.665 5.828,7.013 6.315,0.618 11.675,3.308 16.546,7.173 1.435,1.135 2.8,2.391 4.294,3.417 3.327,2.251 6.575,0.687 6.913,-3.208 0.289,-3.078 0.668,-3.487 3.597,-4.025 5.957,-1.105 11.954,-2.191 17.891,-3.417 1.504,-0.318 3.078,-0.886 4.264,-1.783 C -9.972,8.896 -5.449,5.15 -0.907,1.454 -0.618,1.215 -0.498,0.807 0,0" /></g><g
           transform="translate(818.945,1234.8549)"
           id="g72"><path
             id="path74"
             style="fill:#144399;fill-opacity:1;fill-rule:evenodd;stroke:none"
             d="m 0,0 c -4.154,-9.952 -26.389,-63.278 -33.602,-80.412 -1.623,-3.866 -2.251,-4.015 -6.166,-2.262 -2.241,1.006 -4.503,1.953 -7.123,3.078 0.767,2.132 23.391,56.285 34.01,81.469 1.126,2.66 0.867,3.237 -1.902,4.393 -3.617,1.494 -7.243,2.949 -10.779,4.592 -2.67,1.246 -2.76,1.604 -1.734,4.155 1.505,3.735 3.049,7.461 4.672,11.147 1.415,3.198 1.724,3.327 4.991,1.962 C -9.105,24.586 16.298,13.787 20.502,11.994 24.287,10.41 24.247,10.45 22.623,6.774 21.169,3.427 19.874,0.02 18.459,-3.357 16.985,-6.814 16.656,-6.924 13.269,-5.519 8.956,-3.716 4.652,-1.933 0,0" /></g><g
           transform="translate(361.058,764.5931)"
           id="g76"><path
             id="path78"
             style="fill:#144399;fill-opacity:1;fill-rule:evenodd;stroke:none"
             d="m 0,0 c 0.159,-6.864 -3.746,-10.958 -8.059,-14.534 -4.344,-3.626 -17.573,-9.185 -19.047,-9.713 -2.77,-0.957 -2.949,-0.907 -4.354,1.504 -1.056,1.793 -2.032,3.646 -2.968,5.519 -1.385,2.7 -1.086,3.188 1.613,4.273 2.78,1.106 5.519,2.332 8.219,3.617 1.046,0.488 10.52,4.423 8.717,9.882 -2.142,6.465 -11.975,2.63 -13.08,2.321 -11.486,-3.287 -75.022,-22.514 -78.001,-23.44 -3.527,-1.106 -3.527,-1.126 -4.622,2.241 -0.638,1.963 -1.315,3.935 -1.963,5.898 -0.757,2.301 -0.478,3.058 1.843,3.795 5.947,1.883 68.836,21.139 76.855,23.371 6.216,1.753 13.15,3.158 19.446,2.49 C -0.438,13.997 -0.07,0.787 0,0" /></g><g
           transform="translate(644.6316,992.5494)"
           id="g80"><path
             id="path82"
             style="fill:#144399;fill-opacity:1;fill-rule:evenodd;stroke:none"
             d="m 0,0 c -0.887,0.289 -1.604,0.717 -2.321,0.717 -40.834,0.02 -120.988,0.02 -120.988,0.02 0,0 -0.009,-110.378 -0.009,-119.991 0,-2.042 -1.266,-2.819 -3.168,-2.71 -4.294,0.24 -10.899,0.379 -15.182,0.777 -2.212,0 -2.172,3.457 -2.162,4.224 0.11,44.789 -0.13,89.558 -0.01,134.337 0,0.647 -0.03,1.295 0,1.952 0.05,1.763 0.966,2.58 2.759,2.501 1.554,-0.06 3.128,-0.04 4.702,-0.04 100.905,0 201.829,0.01 302.763,0.01 4.154,0 4.373,-0.229 4.373,-4.433 V -65.3 c 0,-0.638 0.04,-1.295 0.03,-1.943 -0.03,-1.564 -0.797,-2.45 -2.401,-2.46 -5.081,-0.02 -10.181,-0.02 -15.282,-0.02 -1.633,-0.01 -2.331,0.906 -2.341,2.45 -0.01,0.777 0,1.564 0,2.361 0.01,20.492 0.03,40.994 0.03,61.495 0,4.055 -0.099,4.154 -4.174,4.154 H 24.795 c -4.005,0 -4.154,-0.159 -4.154,-4.194 0,-39.289 0.01,-78.599 0.01,-117.899 0,-3.885 -0.04,-3.925 -3.915,-3.935 -4.164,-0.01 -8.348,-0.01 -12.522,0.01 -4.005,0.01 -4.015,0.03 -4.035,4.244 v 12.133 c 0,35.236 0.03,70.511 0.02,105.756 C 0.199,-2.132 0.06,-1.106 0,0" /></g><g
           transform="translate(451.3856,876.81)"
           id="g84"><path
             id="path86"
             style="fill:#144399;fill-opacity:1;fill-rule:evenodd;stroke:none"
             d="m 0,0 c 2.082,-1.215 3.806,-2.361 5.638,-3.297 8.797,-4.394 18.051,-5.569 27.704,-3.925 2.67,0.458 5.33,0.946 7.99,1.464 2.162,0.409 3.297,-0.906 4.533,-2.401 3.895,-4.702 7.68,-9.553 11.964,-13.897 7.92,-8.059 17.354,-14.116 27.315,-19.376 8.637,-4.592 17.434,-8.696 26.798,-11.625 9.344,-2.909 18.888,-3.716 28.491,-2.899 4.164,0.339 8.358,1.933 12.243,3.616 17.712,7.601 33.721,18.151 49.381,29.189 14.266,10.051 28.213,20.551 42.179,31.031 6.465,4.851 12.682,10.002 18.858,15.192 4.582,3.855 9.603,5.977 15.7,5.818 7.262,-0.17 13.189,-7.034 11.894,-14.635 -0.209,-1.175 -1.026,-2.4 -1.882,-3.297 -12.373,-12.891 -63.438,-66.904 -76.807,-80.851 -5.399,-5.628 -10.938,-11.167 -16.477,-16.716 -3.676,-3.706 -8.408,-5.708 -13.169,-7.441 -7.95,-2.889 -16.338,-3.567 -24.616,-2.63 -8.906,1.006 -17.414,3.626 -25.343,8.278 C 112.281,-76.597 91.799,-65.43 71.696,-53.625 48.773,-40.127 26.409,-25.732 5.001,-9.942 3.228,-8.647 1.664,-7.033 0.169,-5.409 -1.185,-3.945 -1.395,-2.221 0,0" /></g><g
           transform="translate(665.2747,707.623)"
           id="g88"><path
             id="path90"
             style="fill:#144399;fill-opacity:1;fill-rule:evenodd;stroke:none"
             d="m 0,0 h -20.482 c 0,0 -0.01,32.316 0.01,46.931 0,3.446 0.259,3.665 3.846,3.695 4.303,0.02 8.597,0 12.91,-0.019 3.596,0 3.746,-0.12 3.746,-3.736 C 0.03,33.97 0,0 0,0" /></g><g
           transform="translate(941.3868,1113.2209)"
           id="g92"><path
             id="path94"
             style="fill:#144399;fill-opacity:1;fill-rule:evenodd;stroke:none"
             d="m 0,0 c 0,-9.324 -7.561,-16.875 -16.885,-16.875 -9.325,0 -16.896,7.551 -16.896,16.875 0,9.334 7.571,16.885 16.896,16.885 C -7.561,16.885 0,9.334 0,0" /></g><g
           transform="translate(811.0163,788.3792)"
           id="g96"><path
             id="path98"
             style="fill:#144399;fill-opacity:1;fill-rule:evenodd;stroke:none"
             d="m 0,0 h -11.426 c -4.652,0 -4.294,-5.529 -4.294,-5.529 0,0 -0.03,0.04 -0.03,0.05 -2.919,-72.732 -63.607,-129.535 -137.315,-129.535 -76.786,0 -139.018,62.053 -139.018,138.61 0,1.345 0.01,16.667 0.01,19.526 0,2.5 -2.172,2.709 -2.75,2.729 h -12.591 c -1.196,-0.209 -2.879,-1.185 -2.879,-5.25 V 3.596 c 0,-86.678 70.281,-156.95 157.228,-156.95 84.388,0 153.175,66.247 157.12,149.409 C 4.015,-0.03 0,0 0,0" /></g><g
           transform="translate(657.3559,394.6498)"
           id="g100"><path
             id="path102"
             style="fill:#144399;fill-opacity:1;fill-rule:nonzero;stroke:none"
             d="M 0,0 C -259.219,0 -469.354,210.136 -469.354,469.335 -469.354,728.564 -259.219,938.7 0,938.7 259.219,938.7 469.345,728.564 469.345,469.335 469.345,210.136 259.219,0 0,0 m 0,972.77 c -278.037,0 -503.424,-225.388 -503.424,-503.435 0,-278.017 225.387,-503.405 503.424,-503.405 278.027,0 503.425,225.388 503.425,503.405 C 503.425,747.382 278.027,972.77 0,972.77" /></g><g
           transform="translate(657.3559,610.339)"
           id="g104"><path
             id="path106"
             style="fill:#144399;fill-opacity:1;fill-rule:nonzero;stroke:none"
             d="m 0,0 c -140.094,0 -253.66,113.566 -253.66,253.67 0,140.084 113.566,253.64 253.66,253.64 140.094,0 253.65,-113.556 253.65,-253.64 C 253.65,113.566 140.094,0 0,0 M 0,537.903 C -156.99,537.903 -284.243,410.65 -284.243,253.67 -284.243,96.69 -156.99,-30.573 0,-30.573 156.98,-30.573 284.223,96.69 284.223,253.67 284.223,410.65 156.98,537.903 0,537.903" /></g><g
           transform="translate(714.9387,1281.2017)"
           id="g108"><path
             id="path110"
             style="fill:#144399;fill-opacity:1;fill-rule:nonzero;stroke:none"
             d="m 0,0 c -3.417,4.274 -8.458,6.684 -15.003,7.172 -14.932,1.066 -23.261,-8.507 -24.805,-28.431 -1.554,-20.113 5.23,-31.35 20.183,-33.432 9.544,-1.145 13.787,-7.262 12.961,-18.659 -0.827,-11.476 -5.938,-16.676 -15.541,-15.988 -4.363,0.318 -7.651,1.833 -9.773,4.502 -2.51,3.158 -3.516,8.07 -3.028,14.595 l 0.07,0.866 -10.899,0.777 -0.049,-0.817 c -0.997,-12.731 0.916,-22.264 5.728,-28.321 3.795,-4.782 9.434,-7.482 16.765,-8.01 1.156,-0.079 2.272,-0.099 3.338,-0.059 14.604,0.438 22.922,11.446 24.735,32.724 1.206,21.688 -6.555,33.293 -23.022,34.489 -7.89,1.484 -11.346,7.122 -10.569,17.224 0.697,9.145 4.214,13.687 10.808,13.897 0.638,0.019 1.305,0 2.043,-0.08 3.436,-0.189 6.056,-1.375 7.8,-3.527 2.241,-2.759 3.148,-7.272 2.699,-13.388 l -0.049,-0.867 10.818,-0.787 0.06,0.837 C 6.077,-13.907 4.314,-5.399 0,0" /></g><g
           transform="translate(349.1017,805.8802)"
           id="g112"><path
             id="path114"
             style="fill:#144399;fill-opacity:1;fill-rule:evenodd;stroke:none"
             d="m 0,0 c 0.179,-1.066 -0.548,-2.072 -1.614,-2.261 l -105.535,-18.34 c -1.066,-0.18 -2.082,0.528 -2.252,1.604 l -1.374,8.178 c -0.18,1.066 0.538,2.082 1.604,2.252 L -3.636,9.783 c 1.076,0.179 2.082,-0.538 2.251,-1.604 z" /></g><g
           transform="translate(344.5969,889.3012)"
           id="g116"><path
             id="path118"
             style="fill:#144399;fill-opacity:1;fill-rule:evenodd;stroke:none"
             d="m 0,0 c -0.11,-1.086 -1.046,-1.873 -2.122,-1.773 l -106.731,9.314 c -1.066,0.1 -1.853,1.046 -1.763,2.122 l 0.777,8.269 c 0.09,1.065 1.056,1.862 2.122,1.763 L -0.996,10.38 C 0.07,10.281 0.867,9.334 0.767,8.248 Z" /></g><g
           transform="translate(462.6515,1109.5719)"
           id="g120"><path
             id="path122"
             style="fill:#144399;fill-opacity:1;fill-rule:evenodd;stroke:none"
             d="m 0,0 c -0.857,-0.647 -2.082,-0.488 -2.74,0.369 l -65.549,84.726 c -0.657,0.866 -0.488,2.092 0.369,2.739 l 6.594,5.041 c 0.857,0.657 2.073,0.488 2.74,-0.359 L 6.963,7.78 C 7.621,6.914 7.452,5.698 6.595,5.041 Z" /></g><g
           transform="translate(730.6895,1168.0892)"
           id="g124"><path
             id="path126"
             style="fill:#144399;fill-opacity:1;fill-rule:evenodd;stroke:none"
             d="m 0,0 c -1.046,0.279 -1.654,1.355 -1.385,2.391 l 27.236,103.614 c 0.269,1.046 1.345,1.663 2.401,1.374 l 7.999,-2.151 c 1.046,-0.279 1.674,-1.355 1.395,-2.391 L 10.41,-0.777 C 10.131,-1.823 9.045,-2.431 7.999,-2.162 Z" /></g><g
           transform="translate(967.6165,898.8348)"
           id="g128"><path
             id="path130"
             style="fill:#144399;fill-opacity:1;fill-rule:evenodd;stroke:none"
             d="m 0,0 c -0.09,1.076 0.707,2.022 1.783,2.132 l 106.642,10.121 c 1.076,0.1 2.033,-0.687 2.132,-1.773 l 0.737,-8.248 c 0.09,-1.086 -0.697,-2.033 -1.773,-2.122 L 2.859,-10.042 c -1.066,-0.099 -2.002,0.708 -2.112,1.784 z" /></g><g
           transform="translate(344.2762,833.0025)"
           id="g132"><path
             id="path134"
             style="fill:#144399;fill-opacity:1;fill-rule:evenodd;stroke:none"
             d="m 0,0 c 0.03,-1.066 -0.807,-1.972 -1.863,-2.012 l -105.346,-3.995 c -1.066,-0.03 -1.953,0.817 -1.982,1.903 l -0.269,8.288 c -0.03,1.076 0.797,1.972 1.862,2.012 l 105.337,3.995 c 1.076,0.02 1.952,-0.827 2.002,-1.903 z" /></g><g
           transform="translate(344.1506,834.0047)"
           id="g136"><path
             id="path138"
             style="fill:#144399;fill-opacity:1;fill-rule:evenodd;stroke:none"
             d="m 0,0 c -0.139,5.878 -1.036,31.37 -1.285,38.264 -0.07,1.813 -0.996,2.62 -2.71,2.57 -4.562,-0.14 -9.115,-0.279 -13.667,-0.498 -2.252,-0.1 -2.531,-0.558 -2.391,-2.989 0.119,-1.952 1.036,-40.913 1.036,-40.913 10.251,0.448 18.25,2.47 19.017,2.56 z" /></g><g
           transform="translate(381.9262,1057.1165)"
           id="g140"><path
             id="path142"
             style="fill:#144399;fill-opacity:1;fill-rule:evenodd;stroke:none"
             d="m 0,0 c -6.814,5.529 -61.037,38.782 -72.712,45.915 v 0.009 c -2.062,1.246 -2.849,0.379 -3.038,0.08 l -5.778,-9.294 c 0,0 66.874,-41.671 70.909,-44.939 2.57,-2.091 5.648,-4.283 5.728,-8.477 0.109,-5.35 -4.862,-12.801 -12.114,-11.257 -4.214,0.727 -9.284,2.849 -13.02,5.11 -16.955,10.291 -63.936,38.623 -63.936,38.623 0,0 -4.054,-6.216 -5.758,-9.235 -0.727,-1.335 0.229,-1.743 0.738,-2.321 0.667,-0.757 26.279,-16.437 38.263,-23.53 10.879,-6.435 21.877,-12.711 32.934,-18.778 20.582,-10.57 34.01,2.57 36.879,8.906 C 10.39,-26.359 16.059,-13.07 0,0" /></g><g
           transform="translate(524.6026,1246.5093)"
           id="g144"><path
             id="path146"
             style="fill:#144399;fill-opacity:1;fill-rule:nonzero;stroke:none"
             d="M 0,0 21.866,-68.568" /></g><g
           transform="translate(621.3417,1239.3596)"
           id="g148"><path
             id="path150"
             style="fill:#144399;fill-opacity:1;fill-rule:nonzero;stroke:none"
             d="m 0,0 c -1.982,-0.209 -11.944,-1.345 -15.142,-1.723 -0.418,2.112 -2.142,25.432 -2.54,27.325 -0.399,1.873 0.408,2.68 1.972,3.088 l 0.03,0.01 c 0.757,0.17 11.735,1.983 18.19,0.618 1.594,-0.578 3.069,-1.454 4.354,-2.57 2.879,-2.511 4.841,-6.196 5.14,-10.48 C 12.293,12.512 11.227,9.006 9.304,6.167 7.143,2.969 3.865,0.677 0,0 m 32.097,-57.241 c -4.682,9.892 -9.404,19.754 -14.106,29.627 -2.311,4.831 -5.409,9.135 -9.563,12.91 25.731,10.062 22.275,54.96 -5.131,60.559 -4.702,0.956 -8.686,0.647 -13.488,0.348 -6.356,-0.398 -12.652,-1.245 -18.997,-1.783 -2.74,-0.239 -3.198,-0.408 -3.069,-3.217 0.14,-3.238 10.002,-102.967 10.171,-104.122 0.279,-1.694 1.186,-2.919 3.109,-2.939 3.227,-0.01 6.485,-0.09 9.443,1.763 0.07,0.558 0.22,1.076 0.19,1.584 -0.718,7.213 -3.965,42.866 -3.965,42.866 0,0 9.005,4.344 12.482,-3.935 0.727,-1.086 15.999,-31.28 18.47,-36.162 1.026,-2.002 3.167,-2.271 3.167,-2.271 l 8.558,0.588 c 0,0 4.054,1.325 2.729,4.184" /></g><g
           transform="translate(1035.4611,1057.0977)"
           id="g152"><path
             id="path154"
             style="fill:#144399;fill-opacity:1;fill-rule:evenodd;stroke:none"
             d="m 0,0 c -0.408,0.608 -0.827,1.175 -1.295,1.714 -10.46,11.336 -37.058,5.17 -37.058,5.17 -14.565,-4.045 -28.013,-10.56 -40.486,-19.038 -6.395,-4.323 -12.332,-9.155 -16.825,-15.54 -3.098,-4.592 -9.793,-16.696 -3.407,-27.993 1.693,-2.72 9.294,-12.044 31.051,-8.099 2.231,0.428 4.453,0.916 6.655,1.564 3.706,1.066 4.313,1.454 4.652,5.33 0.07,0.886 0.528,5.877 0.468,7.561 -0.07,1.653 -1.116,2.171 -2.729,1.763 -3.138,-0.807 -13.349,-4.035 -19.725,-1.564 -2.939,1.145 -5.101,3.307 -5.549,6.535 -0.478,3.437 0.159,6.664 2.252,9.653 2.669,3.805 5.987,6.904 9.772,9.494 11.367,7.74 23.451,14.046 36.75,17.752 4.224,1.165 8.736,1.614 13.08,0.169 2.341,-0.787 4.473,-1.962 5.907,-4.234 2.052,-3.327 2.152,-6.604 0.389,-9.992 -1.883,-3.695 -4.613,-6.604 -7.83,-9.125 -2.053,-1.613 -2.092,-2.331 -0.279,-3.994 2.042,-1.823 4.194,-3.507 6.266,-5.31 1.344,-1.166 2.51,-0.956 3.815,0.11 1.614,1.305 3.178,2.629 4.732,3.994 8.786,8.438 11.187,17.025 11.576,18.649 C 3.716,-7.601 1.544,-2.451 0,0" /></g><g
           transform="translate(881.0804,851.1462)"
           id="g156"><path
             id="path158"
             style="fill:#144399;fill-opacity:1;fill-rule:nonzero;stroke:none"
             d="m 0,0 c -3.297,3.596 -7.262,4.343 -11.805,2.779 -4.582,-1.564 -8.627,-4.482 -11.346,-8.627 -4.722,-7.152 -11.417,-11.635 -19.028,-15.092 -5.578,-2.53 -11.366,-4.214 -17.254,-5.479 l 0.01,-0.02 c -20.202,-5.24 -40.774,-3.646 -40.774,-3.646 -7.939,0.458 -12.871,7.84 -11.416,14.275 0.787,3.497 2.381,6.904 4.234,10.012 2.102,3.557 4.781,6.794 7.391,10.052 12.722,15.819 28.023,28.302 47.07,35.803 9.116,3.566 18.49,6.007 28.362,6.097 0.986,0.009 2.162,0.179 2.929,0.717 4.144,2.869 5.309,9.334 0.836,14.096 -1.235,1.315 -3.556,3.068 -6.823,3.686 -5.798,0.827 -12.732,1.016 -20.084,0.807 -1.783,-0.06 -3.566,-0.14 -5.349,-0.259 -5.29,-0.269 -10.679,-0.658 -15.979,-1.186 -21.169,-2.162 -40.087,-5.798 -40.087,-5.798 -2.46,-0.597 -4.194,-1.833 -5.857,-3.536 -18.231,-18.679 -103.803,-109.342 -110.368,-116.933 -5.34,-6.216 -2.351,-10.6 3.845,-12.711 1.076,-0.369 2.291,-0.488 3.437,-0.548 3.118,-0.229 6.236,-0.409 9.354,-0.508 6.515,-0.239 13.02,-0.648 19.525,-0.558 6.466,0.08 12.961,0.687 19.446,1.066 1.036,0.06 2.082,0.199 3.098,0.328 4.762,0.618 9.514,1.176 14.256,1.893 5.12,0.767 10.31,1.295 15.311,2.57 10.171,2.63 20.273,5.519 30.314,8.627 11.187,3.417 22.375,6.884 33.373,10.889 13.418,4.931 26.737,10.221 39.907,15.829 8.846,3.776 17.473,8.209 25.134,14.196 3.576,2.789 6.983,5.858 9.324,9.912 C 3.168,-7.442 2.53,-2.759 0,0" /></g><g
           transform="translate(815.3657,828.8883)"
           id="g160"><path
             id="path162"
             style="fill:#144399;fill-opacity:1;fill-rule:evenodd;stroke:none"
             d="m 0,0 c 0,-1.046 -0.857,-1.903 -1.903,-1.903 h -16.188 c -1.046,0 -1.902,0.857 -1.902,1.903 v 35.504 c 0,1.066 0.856,1.923 1.902,1.923 H -1.903 C -0.857,37.427 0,36.57 0,35.504 Z" /></g><g
           transform="translate(548.8648,1025.0322)"
           id="g164"><path
             id="path166"
             style="fill:#144399;fill-opacity:1;fill-rule:nonzero;stroke:none"
             d="m 0,0 h 3.367 c 4.901,0 6.844,1.066 6.844,5.628 v 41.163 c 0,4.563 -1.943,5.718 -6.844,5.718 H 0 v 2.64 c 11.855,0.867 18.001,3.198 21.468,6.983 h 3.686 V 5.628 C 25.154,1.066 27.106,0 31.908,0 h 2.66 V -2.63 H 0 Z" /></g><g
           transform="translate(628.1805,1066.3881)"
           id="g168"><path
             id="path170"
             style="fill:#144399;fill-opacity:1;fill-rule:nonzero;stroke:none"
             d="m 0,0 c 0,10.291 -2.251,18.151 -9.404,18.151 -7.063,0 -8.488,-8.149 -8.488,-18.44 0,-9.902 1.216,-16.696 8.169,-16.696 C -2.869,-16.985 0,-8.836 0,0 m -31.509,-34.369 c 0,4.085 3.167,7.283 7.471,7.283 3.776,0 7.163,-2.331 7.163,-6.894 0,-2.53 -1.136,-4.174 -3.387,-5.818 -0.807,-0.588 -1.216,-1.375 -0.509,-1.863 0.927,-0.568 2.351,-1.056 4.613,-1.056 11.147,0 15.451,12.044 16.158,27.376 -2.56,-2.62 -6.136,-4.842 -12.482,-4.842 -11.148,0 -21.578,7.95 -21.578,19.506 0,12.811 12.174,21.069 24.656,21.069 15.232,0 25.263,-11.366 25.263,-29.806 0,-19.326 -13.608,-35.823 -32.017,-35.823 -9.315,0 -15.351,4.652 -15.351,10.868" /></g><g
           transform="translate(681.405,1072.1182)"
           id="g172"><path
             id="path174"
             style="fill:#144399;fill-opacity:1;fill-rule:nonzero;stroke:none"
             d="M 0,0 -23.63,-31.36 H 0 Z m 23.839,-31.36 v -3.397 h -9.205 v -6.794 c 0,-4.463 1.943,-5.539 6.555,-5.539 h 1.833 v -2.62 H -9.205 v 2.62 h 2.66 c 4.602,0 6.545,1.076 6.545,5.539 v 6.794 h -28.431 v 2.71 L 6.555,14.275 h 8.079 V -31.36 Z" /></g><g
           transform="translate(749.6799,1041.6387)"
           id="g176"><path
             id="path178"
             style="fill:#144399;fill-opacity:1;fill-rule:nonzero;stroke:none"
             d="m 0,0 c 0,9.892 -1.225,16.696 -8.179,16.696 -6.863,0 -9.713,-8.169 -9.713,-16.985 0,-10.29 2.252,-18.17 9.405,-18.17 C -1.435,-18.459 0,-10.291 0,0 m -33.751,9.125 c 0,19.306 13.608,35.823 32.018,35.823 9.314,0 15.331,-4.662 15.331,-10.868 0,-4.085 -3.168,-7.292 -7.471,-7.292 -3.776,0 -7.153,2.331 -7.153,6.903 0,2.511 1.126,4.174 3.377,5.818 0.817,0.578 1.225,1.375 0.518,1.833 -0.926,0.598 -2.361,1.086 -4.602,1.086 -11.148,0 -15.451,-12.044 -16.159,-27.376 2.561,2.61 6.127,4.852 12.463,4.852 11.157,0 21.597,-7.97 21.597,-19.525 0,-12.821 -12.173,-21.06 -24.655,-21.06 -15.232,0 -25.264,11.357 -25.264,29.806" /></g></g></g></g></svg>